<svg xmlns="http://www.w3.org/2000/svg" viewBox="0 0 407.32 374.19"><defs><style>.cls-1{fill:#cbdeee;}.cls-14,.cls-2{fill:#8eadd5;}.cls-11,.cls-19,.cls-3{fill:#2e344b;}.cls-13,.cls-14,.cls-16,.cls-17,.cls-18,.cls-3,.cls-4,.cls-5,.cls-6,.cls-7,.cls-8{stroke:#272525;}.cls-13,.cls-14,.cls-3,.cls-4,.cls-5,.cls-6,.cls-7,.cls-8{stroke-miterlimit:10;stroke-width:0.1px;}.cls-4{fill:#d8877b;}.cls-5{fill:#b44e50;}.cls-6{fill:#6779b7;}.cls-12,.cls-7{fill:#fff;}.cls-8{fill:#c85f64;}.cls-9{fill:#d3723f;}.cls-10{fill:#ebab6f;}.cls-13{fill:#ef877b;}.cls-15{fill:#eee837;}.cls-16,.cls-17,.cls-18{fill:none;stroke-linecap:round;stroke-linejoin:round;}.cls-17{stroke-dasharray:3.96 3.96;}.cls-18{stroke-dasharray:4;}.cls-19{font-size:47px;font-family:Quicksand-Bold, Quicksand Bold;font-weight:700;}</style></defs><title>49342674_9214766</title><g id="BACKGROUND"><circle class="cls-1" cx="276.29" cy="84.47" r="59.92"/><circle class="cls-1" cx="83" cy="120.71" r="58.02"/></g><g id="OBJECTS"><ellipse class="cls-2" cx="199.09" cy="360.03" rx="199.09" ry="14.16"/><path class="cls-3" d="M156.55,422.75c-2.73,1.4-4.41,4.14-2.89,6.87s12.16,2.46,22.11,2.5,15.86-.19,16.81-6.19S180.53,416,179,416a3.36,3.36,0,0,0-2.49,1.42Z" transform="translate(-51.02 -69.84)"/><path class="cls-4" d="M156.06,397.2c0,.36-2,27.52-1.18,29.83s18.77,2.18,18.77,2.18-.25-7.56,2.85-11.83l-5.91-2.3s4.51-15.24,4.59-17.26S156.06,397.2,156.06,397.2Z" transform="translate(-51.02 -69.84)"/><path class="cls-5" d="M156.06,397.2c0,.15-.32,4.84-.66,10.47a33.13,33.13,0,0,0,17.77-1.6c.37-1.34.73-2.67,1-3.87l-2.08-5.34C166.74,396.42,156.06,397.2,156.06,397.2Z" transform="translate(-51.02 -69.84)"/><path class="cls-5" d="M165,422.66a3.72,3.72,0,0,0-.8.19,7.9,7.9,0,0,0-.85.47,3.76,3.76,0,0,1-1.36.52,2.13,2.13,0,0,1-1.12-.15,1.81,1.81,0,0,1-.5-.33c-.19-.17-.3-.39-.59-.43a.48.48,0,0,0-.5.24c-.31.62.47,1.26.94,1.54a3.31,3.31,0,0,0,1.69.41,4.27,4.27,0,0,0,1.87-.49,3.14,3.14,0,0,0,1.58-1.45A.37.37,0,0,0,165,422.66Z" transform="translate(-51.02 -69.84)"/><path class="cls-5" d="M173.65,429.21s-.25-7.56,2.85-11.83l-.63-.25a12.58,12.58,0,0,0-4.41,5.95,23.85,23.85,0,0,0-1.28,6.1C172.23,429.22,173.65,429.21,173.65,429.21Z" transform="translate(-51.02 -69.84)"/><path class="cls-3" d="M96.08,420.19c-2.84,1.19-4.73,3.78-3.43,6.62s11.93,3.42,21.85,4.25,15.82,1.06,17.24-4.84-11.22-10.9-12.76-11a3.34,3.34,0,0,0-2.59,1.21Z" transform="translate(-51.02 -69.84)"/><path class="cls-4" d="M97.61,394.69c0,.35-4.13,27.28-3.54,29.64S112.61,428,112.61,428s.35-7.56,3.78-11.57l-5.71-2.76s5.71-14.84,5.94-16.85S97.61,394.69,97.61,394.69Z" transform="translate(-51.02 -69.84)"/><path class="cls-5" d="M97.61,394.69c0,.14-.7,4.8-1.48,10.38a33.25,33.25,0,0,0,17.84-.18c.47-1.31.94-2.61,1.34-3.78l-1.65-5.49C108.32,394.75,97.61,394.69,97.61,394.69Z" transform="translate(-51.02 -69.84)"/><path class="cls-6" d="M98.56,247.79C95.72,257.24,91,287,94.31,301.17s3.77,37.55,4.72,51.72-5.67,46.05-5.67,46.05,17,5.67,25.74,4.49c0,0,12.05-45.58,16.3-62.35a241.87,241.87,0,0,0,5.67-35.43s7.08,30,9.68,45.35,1.42,52.66,1.42,52.66,14.4,3.07,25.5.95c0,0,.47-56-1.42-88.56s-13.46-69.44-13.46-69.44Z" transform="translate(-51.02 -69.84)"/><path class="cls-3" d="M164,250.81c-.23-.81-.44-1.52-.61-2.1l-2.13-2.07-62.74,1.15c-.41,1.36-.86,3.14-1.31,5.22C134.5,269.47,159.2,254.25,164,250.81Z" transform="translate(-51.02 -69.84)"/><path class="cls-4" d="M216.32,226.22c1.34,1.18,6.07,4.18,8.11,4.25a90.65,90.65,0,0,1,11.18,1.34c2,.55,1.71,1.64.92,2.19s-4.23,1-4.23,1,5.67,3.46,6.93,4.49,1,2.6-.55,2.83c0,0,1.5.87.95,2.21a1.75,1.75,0,0,1-2,.94,2.23,2.23,0,0,1-1.89,2.44s.08,1.42-2,1.18-7.48-3.78-8.74-4.49-15.27-7.32-15.27-7.32Z" transform="translate(-51.02 -69.84)"/><path class="cls-5" d="M215.48,227.64l-5.77,9.68,5.65,2.68a27.77,27.77,0,0,0,4.49-11.39c-.52-.3-1-.62-1.5-.92Z" transform="translate(-51.02 -69.84)"/><path class="cls-3" d="M102.89,119.87c2.36-.79,8.39,15.3,5.11,16.77s-7.71-4.17-7.71-4.17l-.79-7.4Z" transform="translate(-51.02 -69.84)"/><path class="cls-4" d="M104.54,135.14c3.15-1.73,3.62-1.81,8.19-1.18a23.26,23.26,0,0,0,9.13-.86l4.72-7.56s-1.89-11.5-2.36-11.5-8.35,2.84-12.28,3.94-12.44,4.41-12.44,4.41Z" transform="translate(-51.02 -69.84)"/><path class="cls-3" d="M142.88,104.09c-27.76-3.15-30.37,21.45-29.54,37s-27.24,37-10.24,67.5,47.87,22.29,57,5.45-.33-47.37,1.32-67S167.64,106.89,142.88,104.09Z" transform="translate(-51.02 -69.84)"/><path class="cls-5" d="M100,123.65l4.54,11.49c1.89-1,2.82-1.48,4.24-1.53a24,24,0,0,1-5.28-12.74l-.64.24Z" transform="translate(-51.02 -69.84)"/><path class="cls-7" d="M115.09,161.83c-13.94-.47-24.64-8.9-26-13.7-.55-2,18.89-11.49,18.89-11.49s-5.67-4.65-5.11-16.77c0,0-29.84,10.08-38.11,22.36s24.57,38,40.62,44.4c0,0-.7,16.06-.94,27.86s-7.32,33.78-7.32,33.78,31.17,17.94,68.49,1.18c0,0-5.67-21.73-5.43-29s4.25-15.12,3.3-23.15c0,0,9.33,15.95,17.36,24.21s31.53,19,31.53,19,6.14-8,7.56-13.7c0,0-24.33-16.76-26.93-21s-14.17-28.82-19.6-33.3S158.2,165.1,154.17,165s-15.7,3.42-15.7,3.42Z" transform="translate(-51.02 -69.84)"/><path class="cls-4" d="M125.72,149.43s-1.42,9.33-3,11.22-7.67,1.18-7.67,1.18,3.19,14,18.65,14.88S154.17,165,154.17,165s-4.84-.36-6.73-1.42-1.53-6.49-1.53-6.49Z" transform="translate(-51.02 -69.84)"/><path class="cls-5" d="M145.79,159.59l-1.59-3.13-18.48-7s-.64,4.14-1.51,7.46C134.57,166.67,145.79,159.59,145.79,159.59Z" transform="translate(-51.02 -69.84)"/><path class="cls-4" d="M123.9,135.28s-1-2-4.79-.66-5.07,11.43,3.47,9.57c0,0,5.07,18.81,23.44,15.93,16.34-2.56,12.87-29.13,12.87-29.13a34.18,34.18,0,0,1-7.92-9.74S143.54,131,123.9,135.28Z" transform="translate(-51.02 -69.84)"/><path class="cls-5" d="M238.61,242.05a5,5,0,0,0-1-.51l-.93-.44-2-.94-2-1-.94-.43a2.5,2.5,0,0,0-.87-.3s0,0,0,.05a2.68,2.68,0,0,0,.85.6l.9.51,1.9,1,1.91.95.94.44a4.72,4.72,0,0,0,1,.43C238.58,242.48,238.81,242.2,238.61,242.05Z" transform="translate(-51.02 -69.84)"/><path class="cls-5" d="M237.67,245.07a42.21,42.21,0,0,0-3.94-1.93l-2-.85a4.53,4.53,0,0,0-1.89-.59s0,0,0,0a5.26,5.26,0,0,0,1.8,1l1.87.9c1.28.63,2.55,1.31,3.86,1.9C237.71,245.71,238,245.25,237.67,245.07Z" transform="translate(-51.02 -69.84)"/><path class="cls-5" d="M235.91,247.54c-.58-.3-1.21-.51-1.8-.8s-1.18-.57-1.76-.88-1.11-.66-1.67-1a3,3,0,0,0-1.6-.49c-.05,0-.08.08,0,.1,1.12.53,2.13,1.27,3.21,1.88.55.31,1.12.61,1.69.87a12.92,12.92,0,0,0,1.76.75C236,248.06,236.16,247.67,235.91,247.54Z" transform="translate(-51.02 -69.84)"/><path class="cls-5" d="M230,234.55c-.5.17-.93.5-1.41.71a6.31,6.31,0,0,1-1.54.44,6.59,6.59,0,0,1-1.6.07c-.54-.05-1.06-.19-1.59-.27-.26,0-.45.3-.19.45a5.45,5.45,0,0,0,3.47.44,6.54,6.54,0,0,0,1.68-.46,3.2,3.2,0,0,0,1.49-1A.28.28,0,0,0,230,234.55Z" transform="translate(-51.02 -69.84)"/><path class="cls-5" d="M228.57,237.06c-.45-.06-.93.51-1.2.8a7.66,7.66,0,0,0-1,1.27,8.85,8.85,0,0,0-.73,1.4,3.51,3.51,0,0,0-.38,1.59c0,.21.32.34.44.12a11.66,11.66,0,0,0,.5-1.44,8.32,8.32,0,0,1,.68-1.37,9.74,9.74,0,0,1,.9-1.21c.17-.2.36-.38.54-.57a1,1,0,0,0,.32-.53S228.61,237.06,228.57,237.06Z" transform="translate(-51.02 -69.84)"/><path class="cls-5" d="M122,140c0-.05,0-.1,0-.14a3.38,3.38,0,0,0-1.16-3,1.43,1.43,0,0,0-1.48-.07,1.37,1.37,0,0,0-.7,1.2.27.27,0,0,0,.41.23,1.75,1.75,0,0,0,.37-.35,1.24,1.24,0,0,1,.27-.29.55.55,0,0,1,.71.11,1.85,1.85,0,0,1,.41,1,2.63,2.63,0,0,1,0,.49,1.53,1.53,0,0,0-.29.07,2,2,0,0,0-1.31,1.27,1.47,1.47,0,0,0,.56,1.67c.48.29,1.26.26,1.44-.37a.31.31,0,0,0-.29-.38,2.36,2.36,0,0,1-.31,0,1,1,0,0,1-.23-.08.32.32,0,0,1-.14-.37.64.64,0,0,1,.36-.45,1.27,1.27,0,0,1,.3-.11.52.52,0,0,0,.28.2.61.61,0,0,0,.73-.41.47.47,0,0,0,0-.16h0Z" transform="translate(-51.02 -69.84)"/><path class="cls-5" d="M159,132.3c-.07-.83-.13-1.31-.13-1.31a34.18,34.18,0,0,1-7.92-9.74s-7.43,9.74-27.07,14c0,0,17-1.92,26.76-11.49A68.07,68.07,0,0,0,159,132.3Z" transform="translate(-51.02 -69.84)"/><path class="cls-6" d="M163.67,194.6c-.52-1.8-1.25-4.13-2.87-5.21a.29.29,0,0,0-.42.32,13.18,13.18,0,0,0,1.21,2.68,17.51,17.51,0,0,1,1.08,2.91,21.48,21.48,0,0,1,.77,6.13,49.72,49.72,0,0,1-2.55,13.27c0,.09.12.15.16.07A32.8,32.8,0,0,0,164.53,201,22.85,22.85,0,0,0,163.67,194.6Z" transform="translate(-51.02 -69.84)"/><path class="cls-6" d="M98.22,122.93a34.54,34.54,0,0,0,1,8.22,36.77,36.77,0,0,0,2.83,7.6c.11.23.23.47.36.71l1.14-.59a35.75,35.75,0,0,1-2.76-6.5,37.65,37.65,0,0,1-1.45-7.06c-.12-1.12-.18-2.25-.21-3.37,0-.22,0-.46,0-.71l-.93.36C98.2,122.22,98.22,122.74,98.22,122.93Z" transform="translate(-51.02 -69.84)"/><path class="cls-6" d="M217.16,224.83l-.72-.51c-.35.89-.62,1.83-1,2.67a44.53,44.53,0,0,1-2.66,5.19c-1,1.64-2,3.21-3.14,4.76-.39.54-.82,1.09-1.25,1.64l1.23.6c.34-.5.66-1,1-1.47,1.11-1.61,2.18-3.26,3.15-5A40.72,40.72,0,0,0,217.16,224.83Z" transform="translate(-51.02 -69.84)"/><path class="cls-6" d="M164.32,244.17c-.72.36-1.45.71-2.17,1.05a62.89,62.89,0,0,1-7,2.75,81.28,81.28,0,0,1-14.28,3.39,74.57,74.57,0,0,1-29.62-1.91,57.46,57.46,0,0,1-7.84-2.77,43.78,43.78,0,0,1-5-2.65l-.15.52a35.4,35.4,0,0,0,10.48,5.15,69.75,69.75,0,0,0,14.52,3,80.19,80.19,0,0,0,30.35-2.79,70.91,70.91,0,0,0,8-2.91c1-.44,2-.91,3-1.43C164.55,245.12,164.43,244.66,164.32,244.17Z" transform="translate(-51.02 -69.84)"/><path class="cls-6" d="M140.51,180.66c5-.78,8.86-3.63,12.22-7.28a27,27,0,0,0,5.14-7.85c-.41-.08-.79-.16-1.16-.22-.05.1-.07.21-.12.31a25.55,25.55,0,0,1-3.39,5.56c-2.87,3.67-6.51,6.84-11.1,8-8.68,2.19-18.8.23-24.94-6.61a19.86,19.86,0,0,1-4.87-11l-.91-.13a19.28,19.28,0,0,0,4,10.29,22.73,22.73,0,0,0,11,7.74A30.19,30.19,0,0,0,140.51,180.66Z" transform="translate(-51.02 -69.84)"/><path class="cls-3" d="M121.05,394.13a60.75,60.75,0,0,1-10.36.14,45.49,45.49,0,0,1-9.48-1.66c-1.13-.33-2.23-.74-3.33-1.17,1.09-3.79,1-7.77,1.3-11.68A93.18,93.18,0,0,1,101,367.23c1.67-8.12,3.75-16.21,3.83-24.55a170.56,170.56,0,0,0-2.12-25.92c-1.24-8.48-3.65-16.74-4.31-25.31a78.5,78.5,0,0,1,.19-14.05c.16-1.62.4-3.22.68-4.81a.56.56,0,0,0,.37,0,19.27,19.27,0,0,0,8.14-4.43,21.79,21.79,0,0,0,4.39-5.34,5.44,5.44,0,0,0,.93-2.14.53.53,0,0,0-.89-.37,8.31,8.31,0,0,0-1,1.81A21.49,21.49,0,0,1,110,264a20.89,20.89,0,0,1-3,3.29,23,23,0,0,1-7.52,4.25c.53-2.83,1.19-5.63,1.85-8.44a.44.44,0,0,0-.85-.24c-2.8,7.69-3.69,16.34-3.53,24.47.17,8.42,2.08,16.5,3.74,24.71a166.45,166.45,0,0,1,3,26.34,69.46,69.46,0,0,1-.62,13c-.62,4.17-1.6,8.27-2.54,12.38a118.66,118.66,0,0,0-2.5,13.47c-.51,4.6-.26,9.23-1.32,13.75L95,390.3c-.05.31-.11.62-.17.92a27.41,27.41,0,0,0,5.65,2.42,45.86,45.86,0,0,0,9.56,2,62.36,62.36,0,0,0,10.76.07l.35,0c.13-.5.27-1,.41-1.57Z" transform="translate(-51.02 -69.84)"/><path class="cls-3" d="M144,277.25a.29.29,0,0,0-.56,0,10.88,10.88,0,0,0-.4,3.42c-.06,1.27-.11,2.54-.17,3.81-.1,2.5-.21,5-.31,7.48a63.79,63.79,0,0,1-.61,7.43,34.38,34.38,0,0,1-.7,3.47,34.31,34.31,0,0,0-1,3.39.22.22,0,0,0,.41.17c1.29-1.79,1.7-4.44,2.08-6.58a60.24,60.24,0,0,0,.81-7.21c.17-2.56.26-5.11.36-7.67.06-1.27.11-2.54.16-3.82A11.8,11.8,0,0,0,144,277.25Z" transform="translate(-51.02 -69.84)"/><path class="cls-3" d="M149.89,319.7c-.78-3.19-1.59-6.38-2.61-9.5a31.52,31.52,0,0,0-4-8.73.3.3,0,0,0-.52.3,67.16,67.16,0,0,1,3.41,8.29c.87,2.75,1.55,5.55,2.23,8.35,1.46,6,2.7,12.12,3.8,18.23a245.29,245.29,0,0,1,3.68,37.09c.18,7,.13,14-.24,21-.05.93,1.4.93,1.44,0A268.81,268.81,0,0,0,149.89,319.7Z" transform="translate(-51.02 -69.84)"/><path class="cls-3" d="M177.72,395a49.19,49.19,0,0,1-8.27,1.18,63.55,63.55,0,0,1-9.46-.24c-1.76-.16-3.52-.37-5.27-.62-.77-.11-1.57-.25-2.37-.33,0,.36,0,.72,0,1.06.4.09.81.14,1.15.2,1.6.3,3.23.5,4.85.69a68.66,68.66,0,0,0,10.63.53,50.33,50.33,0,0,0,8.74-1.09C177.71,395.93,177.72,395.46,177.72,395Z" transform="translate(-51.02 -69.84)"/><path class="cls-3" d="M167.23,262.63a14,14,0,0,1-2.09-.88A17.79,17.79,0,0,1,162,259.7a17.6,17.6,0,0,1-1.4-1.33,8,8,0,0,0-1.27-1.27c-.21-.15-.49.09-.42.33a7.7,7.7,0,0,0,2.42,3.08,15.76,15.76,0,0,0,3.36,2.36,18.07,18.07,0,0,0,2.87,1.19C167.47,263.57,167.35,263.1,167.23,262.63Z" transform="translate(-51.02 -69.84)"/><path class="cls-5" d="M104.46,420.77a3.26,3.26,0,0,0-.82.13,5.69,5.69,0,0,0-.87.4,4,4,0,0,1-1.4.41,2.2,2.2,0,0,1-1.11-.24,1.54,1.54,0,0,1-.47-.37c-.18-.18-.27-.42-.56-.48a.46.46,0,0,0-.51.21c-.36.59.36,1.29.81,1.6a3.34,3.34,0,0,0,1.65.55,4.42,4.42,0,0,0,1.9-.34,3.18,3.18,0,0,0,1.69-1.32A.36.36,0,0,0,104.46,420.77Z" transform="translate(-51.02 -69.84)"/><path class="cls-5" d="M112.61,428s.35-7.56,3.78-11.57l-.61-.3a12.6,12.6,0,0,0-4.87,5.58,23.74,23.74,0,0,0-1.76,6C111.2,427.89,112.61,428,112.61,428Z" transform="translate(-51.02 -69.84)"/><path class="cls-3" d="M139.18,131.46a1,1,0,0,0-1.27-.05,2,2,0,0,0-.32.25l-.06,0s-.18.14-.21.16l-.22.14a2,2,0,0,1-.37.21s.07,0,0,0l-.13,0-.23.07-.23,0h-.47l-.22,0h-.06l-.18,0a.62.62,0,0,0-.83.36c-.14.44.33.83.67,1a2.64,2.64,0,0,0,1.13.3,3.94,3.94,0,0,0,2.13-.59,2.41,2.41,0,0,0,1-.84A.94.94,0,0,0,139.18,131.46Z" transform="translate(-51.02 -69.84)"/><path class="cls-3" d="M152.29,132.74h0l0,0,0,0Z" transform="translate(-51.02 -69.84)"/><path class="cls-3" d="M155.68,134.07a.74.74,0,0,0-.5-.5,2.79,2.79,0,0,0-.65-.14h0l-.23,0-.26,0h-.09l-.23,0a4.61,4.61,0,0,1-.53-.15l-.21-.07h0c-.09,0,0,0,0,0l-.09,0a3.3,3.3,0,0,1-.45-.26l-.1-.06h0l0,0,0,0a1.78,1.78,0,0,0-.27-.21l-.09-.07h0a1.15,1.15,0,0,0-.64-.27.79.79,0,0,0-.77.78,1.15,1.15,0,0,0,.33.78,2.61,2.61,0,0,0,.52.53,5.42,5.42,0,0,0,1.34.77,4.3,4.3,0,0,0,1.33.26,2.05,2.05,0,0,0,1.52-.5A.7.7,0,0,0,155.68,134.07Z" transform="translate(-51.02 -69.84)"/><path class="cls-3" d="M153,133.11h0Z" transform="translate(-51.02 -69.84)"/><path class="cls-3" d="M138.68,135.82c-.05,0-.1-.08-.16-.11a1.54,1.54,0,0,0-1.76.22,2.8,2.8,0,0,0-.61.91,4.9,4.9,0,0,0-.46,2.26c.05.93.32,2.07,1.31,2.41a1.94,1.94,0,0,0,2.22-1.27,4.47,4.47,0,0,0,.45-2.24A2.59,2.59,0,0,0,138.68,135.82Z" transform="translate(-51.02 -69.84)"/><path class="cls-3" d="M153.17,137.08,153,137a1.55,1.55,0,0,0-1.76.22,3,3,0,0,0-.61.91,4.9,4.9,0,0,0-.46,2.26c.06.93.32,2.07,1.32,2.41a2,2,0,0,0,2.22-1.27,4.58,4.58,0,0,0,.45-2.24A2.65,2.65,0,0,0,153.17,137.08Z" transform="translate(-51.02 -69.84)"/><path class="cls-7" d="M137.75,135.91a1,1,0,0,0-.25-.43l-.2-.15a.92.92,0,0,0-.49-.13.69.69,0,0,0-.37.08.79.79,0,0,0-.31.2.69.69,0,0,0-.2.31.71.71,0,0,0-.08.38l0,.25a1,1,0,0,0,.25.43l.2.15a.92.92,0,0,0,.48.14.82.82,0,0,0,.38-.09,1,1,0,0,0,.59-.88Z" transform="translate(-51.02 -69.84)"/><path class="cls-7" d="M152.42,137.17a1.1,1.1,0,0,0-.25-.43l-.2-.15a1,1,0,0,0-.49-.13.77.77,0,0,0-.37.08.84.84,0,0,0-.52.52.77.77,0,0,0-.08.37l0,.26a.92.92,0,0,0,.24.43l.2.15a1,1,0,0,0,.49.13.67.67,0,0,0,.37-.08.84.84,0,0,0,.52-.52.67.67,0,0,0,.08-.37Z" transform="translate(-51.02 -69.84)"/><path class="cls-5" d="M146.57,142.93c-.27-.58-.7-1.08-1-1.66a5.26,5.26,0,0,1-.33-.86,3,3,0,0,0-.24-1,.5.5,0,0,0-.85,0c-.33.46-.09,1.32.06,1.82a5.8,5.8,0,0,0,.87,1.65c.28.39.66.78.37,1.27a2.21,2.21,0,0,1-.54.56,2.81,2.81,0,0,0-.57.67.4.4,0,0,0,.34.6,2.19,2.19,0,0,0,1.68-1A2,2,0,0,0,146.57,142.93Z" transform="translate(-51.02 -69.84)"/><path class="cls-5" d="M146.41,149.37a6.28,6.28,0,0,0-2.9-.55c-.84.08-2.22.41-2.39,1.41a.18.18,0,0,0,.22.22,9.63,9.63,0,0,0,1.13-.42,3.61,3.61,0,0,1,1.22-.18,7.46,7.46,0,0,1,2.72.78c.38.16,1.22.41,1.21-.29C147.62,149.81,146.8,149.55,146.41,149.37Z" transform="translate(-51.02 -69.84)"/><path class="cls-8" d="M136.09,143.49c-.1,1.17-1.56,2-3.25,1.84s-3-1.23-2.86-2.4,1.56-2,3.25-1.84S136.2,142.32,136.09,143.49Z" transform="translate(-51.02 -69.84)"/><path class="cls-8" d="M157.82,145.7c-.11,1.17-1.56,2-3.25,1.83s-3-1.23-2.86-2.4,1.56-2,3.25-1.83S157.93,144.53,157.82,145.7Z" transform="translate(-51.02 -69.84)"/><path class="cls-8" d="M135.21,135.93l-.08-.12a.49.49,0,0,0-.13-.12h0l0,0-.1-.06a.77.77,0,0,0-.19-.08l-.1,0-.2,0-.18,0a.31.31,0,0,0-.24.16.34.34,0,0,0,0,.22.88.88,0,0,0,.05.15.2.2,0,0,1,0,.08.86.86,0,0,0,.13.14l.16.13.29.13.1,0a.55.55,0,0,0,.22,0,.49.49,0,0,0,.2-.05.5.5,0,0,0,.14-.15A.38.38,0,0,0,135.21,135.93Z" transform="translate(-51.02 -69.84)"/><path class="cls-8" d="M135.73,134.94l0-.17a2.06,2.06,0,0,0-.12-.26.86.86,0,0,0-.28-.26.42.42,0,0,0-.21-.06.37.37,0,0,0-.21.06.43.43,0,0,0-.21.35v.13a.59.59,0,0,0,0,.13l0,.12a.8.8,0,0,0,.08.16l.11.15.12.15a.34.34,0,0,0,.15.09.33.33,0,0,0,.19.06.28.28,0,0,0,.15,0,.35.35,0,0,0,.22-.24,1.1,1.1,0,0,0,0-.18A.58.58,0,0,0,135.73,134.94Z" transform="translate(-51.02 -69.84)"/><path class="cls-8" d="M155.11,136.22a.33.33,0,0,0-.13-.13l-.09,0a.22.22,0,0,0-.11,0h-.11l-.12,0-.06,0-.14.11-.11.1-.06.05-.06.06-.05.06h0l-.06.09,0,0a.24.24,0,0,0,0,.08.37.37,0,0,0,0,.21.32.32,0,0,0,.17.22.36.36,0,0,0,.2.06.5.5,0,0,0,.24-.06l.07,0a.72.72,0,0,0,.2-.14.93.93,0,0,0,.26-.3l0-.06,0,0,0-.05a.29.29,0,0,0,0-.16A.25.25,0,0,0,155.11,136.22Z" transform="translate(-51.02 -69.84)"/><path class="cls-8" d="M155.94,137.48a.41.41,0,0,0-.16-.16.42.42,0,0,0-.27,0h-.13a.68.68,0,0,0-.2.07l-.2.13a.58.58,0,0,0-.18.17.35.35,0,0,0-.06.14.25.25,0,0,0,.11.28.55.55,0,0,0,.24.07h.3l.19,0a.37.37,0,0,0,.15,0,.37.37,0,0,0,.17-.13c0-.06,0,0,.06-.1A.4.4,0,0,0,155.94,137.48Z" transform="translate(-51.02 -69.84)"/><path class="cls-8" d="M155.55,138.12h0Z" transform="translate(-51.02 -69.84)"/><path class="cls-8" d="M155.64,138.11h0Z" transform="translate(-51.02 -69.84)"/><path class="cls-6" d="M152.68,228.66a30.73,30.73,0,0,0-3,1.7,33.76,33.76,0,0,1-3.19,1.58,28.91,28.91,0,0,1-20.93.71,44.55,44.55,0,0,1-7.26-3.51c-.2-.12-.45.17-.26.34a22.4,22.4,0,0,0,6.21,3.6,29.18,29.18,0,0,0,7.18,1.91,29.77,29.77,0,0,0,14.51-1.65,28.91,28.91,0,0,0,3.76-1.71,11.58,11.58,0,0,0,3.33-2.38C153.23,229,153,228.51,152.68,228.66Z" transform="translate(-51.02 -69.84)"/><path class="cls-6" d="M152.46,223.91c-.93.64-1.84,1.33-2.82,1.9a16.14,16.14,0,0,1-1.5.75c-.25.12-.51.21-.76.32L147,227c-.13.06-.18.16-.29.23a.13.13,0,0,0,.06.24,1.16,1.16,0,0,0,.38.06,3.2,3.2,0,0,0,.41-.07,7.88,7.88,0,0,0,.83-.24,10.41,10.41,0,0,0,1.68-.73,8.61,8.61,0,0,0,1.51-1,6.59,6.59,0,0,0,1.22-1.31C152.93,224.05,152.65,223.78,152.46,223.91Z" transform="translate(-51.02 -69.84)"/><path class="cls-9" d="M408.31,431.77H212.94a10.12,10.12,0,0,1-10-11.59L225.34,266.7a7.58,7.58,0,0,1,7.51-6.49H358.26l11.43-14.27a12.56,12.56,0,0,1,9.8-4.7h58.06a7.59,7.59,0,0,1,7.51,8.68L420,421.67A11.79,11.79,0,0,1,408.31,431.77Z" transform="translate(-51.02 -69.84)"/><path class="cls-10" d="M210.05,431.77H409.24a8.19,8.19,0,0,0,8.12-9.2L399.87,282.68a8.3,8.3,0,0,0-8.22-7.26H191.07a8.29,8.29,0,0,0-8.22,9.32L200.14,423A10,10,0,0,0,210.05,431.77Z" transform="translate(-51.02 -69.84)"/><path class="cls-11" d="M275.77,341l-.09-.08c-.38-.33-.78-.64-1.17-1l-2.09-1.68-2.2-1.77.74-.94c.69-.88,1.4-1.74,2.06-2.64a8.42,8.42,0,0,0,1.57-2.7,2.07,2.07,0,0,0-2.53-2.52c-2,.57-3.66,2.43-5.1,3.86l-1.26,1.3c-.81-.66-1.63-1.3-2.48-1.89-1.54-1.08-3.41-3.17-5.43-3a2.54,2.54,0,0,0-2.48,2.49c.12,2.38,2.48,4,4,5.58.62.66,1.27,1.3,1.94,1.93-.77.95-1.51,1.92-2.21,2.92-1.26,1.81-3,3.9-3,6.18a2.8,2.8,0,0,0,4.16,2.39,7.47,7.47,0,0,0,2.51-2.61c.58-.81,1.15-1.63,1.74-2.44s1-1.4,1.51-2.1l2.24,2.11c.73.69,1.45,1.39,2.21,2.05a12,12,0,0,0,1.61,1.32,4.69,4.69,0,0,0,3.43.45,3.88,3.88,0,0,0,2.82-3.71v-.09A3.65,3.65,0,0,0,275.77,341Z" transform="translate(-51.02 -69.84)"/><path class="cls-11" d="M329.12,338.57l-.08-.08c-.38-.32-.78-.64-1.17-.95l-2.09-1.68-2.2-1.77.74-.95c.69-.87,1.4-1.74,2.06-2.64a8.27,8.27,0,0,0,1.57-2.69,2.08,2.08,0,0,0-2.53-2.53c-2,.58-3.66,2.44-5.1,3.87l-1.26,1.29c-.81-.65-1.63-1.29-2.49-1.89-1.53-1.07-3.4-3.16-5.42-3a2.53,2.53,0,0,0-2.48,2.48c.11,2.38,2.48,4,4,5.58.62.67,1.27,1.3,1.94,1.93-.77,1-1.52,1.93-2.21,2.93-1.26,1.81-3,3.89-3.05,6.18a2.8,2.8,0,0,0,4.16,2.39,7.56,7.56,0,0,0,2.51-2.61c.58-.82,1.15-1.64,1.74-2.44l1.51-2.1L321.5,342c.73.69,1.45,1.38,2.2,2.05a13.36,13.36,0,0,0,1.61,1.31,4.73,4.73,0,0,0,3.44.46,3.89,3.89,0,0,0,2.82-3.71V342A3.67,3.67,0,0,0,329.12,338.57Z" transform="translate(-51.02 -69.84)"/><path class="cls-11" d="M308.66,357.54a42.74,42.74,0,0,0-6-2.27,32,32,0,0,0-12-1.47,19.42,19.42,0,0,0-9.69,3.36,18.06,18.06,0,0,0-3.84,3.72,6.86,6.86,0,0,0-1.65,4.6,1.64,1.64,0,0,0,2.45,1.41,20.91,20.91,0,0,0,2.93-2.72,11.78,11.78,0,0,1,3-2.08,15.17,15.17,0,0,1,3.41-1.29,13.29,13.29,0,0,1,3.82-.54A26.49,26.49,0,0,1,300.6,362c1.61.56,3.19,1.23,4.77,1.87l.1,0,.77.33.08,0a6.58,6.58,0,0,0,1,.41,8.78,8.78,0,0,0,2.38.5,2.71,2.71,0,0,0,2.67-2.67C312.45,360.2,310.61,358.48,308.66,357.54Z" transform="translate(-51.02 -69.84)"/><path class="cls-12" d="M399.29,261.94a2.1,2.1,0,0,0-.55-.93,2,2,0,0,0-.93-.55,2.09,2.09,0,0,0-2.06.55l-.39.5c-.07.18-.15.35-.22.52s-.09.2-.12.3a5.92,5.92,0,0,0-.15,1.12,10.69,10.69,0,0,0-.08,1.27,10.22,10.22,0,0,0,.11,1.66,2.72,2.72,0,0,0,.19.69,3,3,0,0,0,.56.8,1.35,1.35,0,0,0,1.61.21,3.5,3.5,0,0,0,.63-.46,2.77,2.77,0,0,0,.51-.78,11.34,11.34,0,0,0,.55-1.51,9.67,9.67,0,0,0,.29-1.18A4.05,4.05,0,0,0,399.29,261.94Z" transform="translate(-51.02 -69.84)"/><path class="cls-12" d="M412.24,262.45a2.12,2.12,0,0,0-1.51-1.5,2.88,2.88,0,0,0-1-.05,2.47,2.47,0,0,0-1.31.63,5.15,5.15,0,0,0-.5.43,11.57,11.57,0,0,0-.89,1.1c-.67.86-1.29,1.74-1.89,2.66l-.71,1.12a11.43,11.43,0,0,0-.73,1.59,5.76,5.76,0,0,0-.43,1.27,1.88,1.88,0,0,0,.12,1.34,1.29,1.29,0,0,0,1.09.66c1,.09,1.89-1,2.58-1.64s1.15-1.26,1.72-1.9,1.12-1.25,1.67-1.89C411.39,265.22,412.71,264,412.24,262.45Z" transform="translate(-51.02 -69.84)"/><path class="cls-12" d="M414,276.74a3.27,3.27,0,0,0-1.21-.76,4.3,4.3,0,0,0-1.17-.17,8.55,8.55,0,0,0-1.82.22,12.39,12.39,0,0,0-1.32.38,4.14,4.14,0,0,0-1,.43,4.34,4.34,0,0,0-.78.7,1.46,1.46,0,0,0-.36,1.35,1.39,1.39,0,0,0,1,1c.16,0,.32.07.49.09s.42.07.63.08l.24,0h.1a11.16,11.16,0,0,1,2-.08c.36,0,.73,0,1.09,0a5.68,5.68,0,0,0,.92-.14,3.34,3.34,0,0,0,.83-.4A1.71,1.71,0,0,0,414,276.74Z" transform="translate(-51.02 -69.84)"/><polygon class="cls-7" points="262.38 31.6 238.29 50.41 229.12 149.07 319.16 149.07 330.08 31.6 262.38 31.6"/><polygon class="cls-6" points="260.64 50.41 262.38 31.6 238.29 50.41 260.64 50.41"/><path class="cls-13" d="M342.57,149.87c1.25-1.48,2.7-3,3.18-4.92a2.07,2.07,0,0,0-2.51-2.52c-1.79.35-3.26,1.6-4.67,2.68s-3,2.44-4.46,3.71c-2.05,1.79-4,3.7-6,5.62-1-1.43-2-2.87-3-4.3s-2-2.87-3-4.26a15.36,15.36,0,0,0-3.85-4.1c-1.4-.84-3.76.21-3.54,2,.41,3.55,2.95,7,4.74,10q1.74,2.91,3.57,5.74l-4.29,4.38c-2.57,2.64-6.06,5.42-7.31,9-.74,2.1,1.68,4.8,3.88,3.88,3.54-1.49,6.05-4.92,8.67-7.62,1.09-1.13,2.19-2.24,3.29-3.36,1.34,1.9,2.7,3.78,4.11,5.63,1.13,1.47,2.27,2.94,3.43,4.38a19.5,19.5,0,0,0,1.81,2.14,4.36,4.36,0,0,0,4.13,1.12,3.4,3.4,0,0,0,2.37-2.36c.82-2.47-1-4.27-2.51-6q-1.67-1.92-3.27-3.9c-1.68-2.06-3.29-4.17-4.88-6.3,2.21-2.22,4.45-4.43,6.58-6.73C340.25,152.49,341.45,151.22,342.57,149.87Z" transform="translate(-51.02 -69.84)"/><polygon class="cls-7" points="255.35 20.34 231.26 39.15 222.09 137.82 312.13 137.82 323.05 20.34 255.35 20.34"/><polygon class="cls-14" points="253.6 39.15 255.35 20.34 231.26 39.15 253.6 39.15"/><path class="cls-8" d="M335.54,138.62c1.24-1.49,2.69-3,3.17-4.93a2.07,2.07,0,0,0-2.51-2.51c-1.78.34-3.26,1.6-4.66,2.67s-3,2.44-4.47,3.72c-2.05,1.79-4,3.7-6,5.61l-3-4.29c-1-1.44-2-2.87-3-4.26a15.09,15.09,0,0,0-3.85-4.11c-1.4-.84-3.75.21-3.54,2,.41,3.55,2.95,7,4.75,10,1.15,1.94,2.35,3.84,3.57,5.74q-2.16,2.18-4.29,4.37c-2.57,2.65-6.06,5.43-7.31,9-.74,2.11,1.68,4.8,3.87,3.88,3.54-1.48,6.06-4.91,8.67-7.62,1.09-1.12,2.2-2.23,3.29-3.35,1.35,1.9,2.71,3.78,4.12,5.62q1.68,2.22,3.43,4.39a20.48,20.48,0,0,0,1.81,2.14,4.4,4.4,0,0,0,4.12,1.12,3.37,3.37,0,0,0,2.37-2.37c.83-2.47-1-4.26-2.51-6q-1.65-1.94-3.27-3.9c-1.67-2.06-3.29-4.17-4.87-6.31,2.21-2.22,4.45-4.43,6.57-6.72C333.21,141.23,334.42,140,335.54,138.62Z" transform="translate(-51.02 -69.84)"/><polygon class="cls-3" points="230.17 137.82 314.24 140.99 322 31.6 312.13 137.82 230.17 137.82"/><path class="cls-7" d="M288.17,89.17c-.42-.47-.81-.94-1.27-1.37s-.87-.84-1.35-1.22l-.75-.6a2.38,2.38,0,0,0-.54-.35l-.14-.06-.39-.17a1.28,1.28,0,0,0-1.38.1,1.23,1.23,0,0,0-.45,1.3,5.5,5.5,0,0,0,.43,1.09c.17.24.36.47.53.71a21.9,21.9,0,0,0,1.46,1.71,16.4,16.4,0,0,0,1.39,1.24,7.92,7.92,0,0,0,1,.76,2.34,2.34,0,0,0,1.41.45,1.38,1.38,0,0,0,.92-.38,1.47,1.47,0,0,0,.38-.92C289.46,90.58,288.7,89.78,288.17,89.17Z" transform="translate(-51.02 -69.84)"/><path class="cls-7" d="M286.2,97.55a2.12,2.12,0,0,0-.78-.71,2.64,2.64,0,0,0-1.47-.51c-.38,0-.76,0-1.14,0a8.54,8.54,0,0,0-1.42.21,2.23,2.23,0,0,0-1.39.67,1.23,1.23,0,0,0,.24,1.9,1.89,1.89,0,0,0,1,.31,5.43,5.43,0,0,0,.57,0,9.75,9.75,0,0,0,1.08,0,5.14,5.14,0,0,0,2.48-.54h0a1.65,1.65,0,0,0,.42-.21,2.43,2.43,0,0,0,.34-.3A.58.58,0,0,0,286.2,97.55Z" transform="translate(-51.02 -69.84)"/><path class="cls-7" d="M295.61,84.38c0-.26,0-.52,0-.77a1.84,1.84,0,0,0-.39-1,.93.93,0,0,0-1.25-.33,1.7,1.7,0,0,0-.81.71,6,6,0,0,0-.42,1,7.17,7.17,0,0,0-.33,1.72,8.66,8.66,0,0,0-.09,1.76,4.06,4.06,0,0,0,.45,2,1.19,1.19,0,0,0,2,0,2.94,2.94,0,0,0,.36-1.19c0-.11,0-.22,0-.33a1,1,0,0,0,0-.12c.1-.63.17-1.25.23-1.88,0-.25.05-.5.09-.74v-.11A4.06,4.06,0,0,0,295.61,84.38Z" transform="translate(-51.02 -69.84)"/><path class="cls-7" d="M242.59,108.78c0,16-14.89,29-33.25,29a36.7,36.7,0,0,1-17.58-4.39,36.88,36.88,0,0,1-17.64.64,1.13,1.13,0,0,1-.37-2.07,37.45,37.45,0,0,0,7.92-7.1,26.35,26.35,0,0,1-5.58-16.1c0-16,14.89-29,33.25-29S242.59,92.76,242.59,108.78Z" transform="translate(-51.02 -69.84)"/><path class="cls-15" d="M414.34,79.53l5.2,1.69-5.2,1.69a7,7,0,0,0-4.48,4.47l-1.69,5.21-1.69-5.21A7,7,0,0,0,402,82.91l-5.21-1.69L402,79.53a7,7,0,0,0,4.48-4.48l1.69-5.21,1.69,5.21A7,7,0,0,0,414.34,79.53Z" transform="translate(-51.02 -69.84)"/><path class="cls-15" d="M73,369.56l5.21,1.69L73,372.94a7,7,0,0,0-4.47,4.48l-1.69,5.21-1.69-5.21a7,7,0,0,0-4.48-4.48l-5.21-1.69,5.21-1.69a7,7,0,0,0,4.48-4.48l1.69-5.2,1.69,5.2A7,7,0,0,0,73,369.56Z" transform="translate(-51.02 -69.84)"/><path class="cls-15" d="M264.43,233.21l4.27,1.38L264.43,236a5.75,5.75,0,0,0-3.68,3.67l-1.38,4.28L258,239.65a5.72,5.72,0,0,0-3.67-3.67L250,234.59l4.27-1.38a5.72,5.72,0,0,0,3.67-3.67l1.39-4.28,1.38,4.28A5.75,5.75,0,0,0,264.43,233.21Z" transform="translate(-51.02 -69.84)"/><path class="cls-15" d="M454.07,381.12l4.27,1.39-4.27,1.38a5.73,5.73,0,0,0-3.68,3.67L449,391.84l-1.39-4.28a5.72,5.72,0,0,0-3.67-3.67l-4.27-1.38,4.27-1.39a5.72,5.72,0,0,0,3.67-3.67l1.39-4.28,1.38,4.28A5.73,5.73,0,0,0,454.07,381.12Z" transform="translate(-51.02 -69.84)"/><path class="cls-15" d="M432.91,94.75l2.34.76-2.34.76a3.12,3.12,0,0,0-2,2l-.76,2.34-.76-2.34a3.12,3.12,0,0,0-2-2L425,95.51l2.34-.76a3.14,3.14,0,0,0,2-2l.76-2.34.76,2.34A3.13,3.13,0,0,0,432.91,94.75Z" transform="translate(-51.02 -69.84)"/><path class="cls-15" d="M120.65,83.19,123,84l-2.35.76a3.14,3.14,0,0,0-2,2l-.76,2.34-.76-2.34a3.13,3.13,0,0,0-2-2L112.76,84l2.34-.76a3.12,3.12,0,0,0,2-2l.76-2.34.76,2.34A3.12,3.12,0,0,0,120.65,83.19Z" transform="translate(-51.02 -69.84)"/><path class="cls-16" d="M335.42,268.5a19.91,19.91,0,0,1-.83-1.82" transform="translate(-51.02 -69.84)"/><path class="cls-17" d="M333.52,262.87A22.18,22.18,0,0,1,341,242c7.13-5.76,17-6.36,26.14-6.73,9.41-.38,18.89-.79,28.08-2.83,6.18-1.37,12.34-3.55,17.19-7.6s8.25-10.24,7.72-16.54-5.68-12.27-12-12.57-12.31,6.37-10.4,12.4a10.76,10.76,0,0,0,7.94,6.82,17.88,17.88,0,0,0,10.7-1.29,27.1,27.1,0,0,0,15.32-17,37.65,37.65,0,0,0,1.21-13.25c-.33-5.35-1.37-10.77-4.1-15.39-3.58-6.07-9.84-10.23-16.51-12.52a64.58,64.58,0,0,0-16.88-3" transform="translate(-51.02 -69.84)"/><path class="cls-16" d="M393.4,152.48l-2-.09" transform="translate(-51.02 -69.84)"/><path class="cls-18" d="M256.7,267.2c-15.37,4.36-32.69,2-45.88-7s-21.77-24.73-21.35-40.7,10.2-31.54,24.75-38.12c5.53-2.49,12.06-3.69,17.62-1.27s9.33,9.36,6.72,14.84-10.54,6.88-15.63,3.62-7.29-9.9-6.59-15.91,3.85-11.47,7.54-16.27A74,74,0,0,1,270,138.73" transform="translate(-51.02 -69.84)"/></g><g id="TEXT"><text class="cls-19" transform="translate(146.6 56.45)">?</text></g></svg>