<?xml version="1.0" encoding="utf-8"?>
<!-- Generator: Adobe Illustrator 23.1.0, SVG Export Plug-In . SVG Version: 6.00 Build 0)  -->
<svg version="1.1" xmlns="http://www.w3.org/2000/svg" xmlns:xlink="http://www.w3.org/1999/xlink" x="0px" y="0px"
	 viewBox="0 0 500 500" style="enable-background:new 0 0 500 500;" xml:space="preserve">
<style type="text/css">
	.st0{fill:#F5F5F5;}
	.st1{fill:#E0E0E0;}
	.st2{fill:#27DEBF;}
	.st3{opacity:0.2;enable-background:new    ;}
	.st4{fill:#FFFFFF;}
	.st5{fill:#EBEBEB;}
	.st6{fill:#263238;}
	.st7{fill:#455A64;}
	.st8{opacity:0.6;fill:#FFFFFF;enable-background:new    ;}
	.st9{fill:#37474F;}
	.st10{fill:#FAFAFA;}
	.st11{fill:#F0F0F0;}
	.st12{fill:#FFA8A7;}
	.st13{fill:#F28F8F;}
	.st14{opacity:0.4;enable-background:new    ;}
</style>
<g id="Floor">
	<path class="st0" d="M103.3,428.7c82.8,43.2,216.9,43.2,299.7,0s82.8-113.3,0-156.6s-216.9-43.2-299.7,0S20.5,385.5,103.3,428.7z"
		/>
</g>
<g id="Shadow">
	<ellipse class="st1" cx="392.9" cy="385.1" rx="45.5" ry="21.7"/>
</g>
<g id="Plants">
	<g>
		<path class="st2" d="M67.9,370.5c-0.1-0.9-0.5-1.8-1-2.5c-1-1-2.3-1.7-3.7-1.8c-1.4-0.1-2.8-0.3-4.1-0.6c-4.3-1.2-6.9-5.6-5.7-9.9
			c0,0,0,0,0-0.1c0.4-1.3,1.1-2.5,1.4-3.9c1-3.5-1.7-4.9-4.2-6.6c-1.7-1.2-4.6-2.9-4.2-5.3c0.7-4.6,7.5-5.8,14-3.9s10,3.3,14.8,2
			c4.8-1.3,9.3-1.6,11.9,2.7s0,8.4,3.3,11.4c3.3,3,9,1,11.3,7.5v39.1c0-0.2-1.1-1-1.3-1.1l-3.6-3.2c-1.1-1-2.7-1.9-3.4-3.1
			c-1.1-1.7-1.6-3.8-2.7-5.5c-1.2-2.1-3-3.8-5.1-5c-4.2-2.1-9.2-1.8-13.4-3.8c-1.5-0.7-2.8-1.9-3.5-3.4
			C68.3,372.4,68.1,371.5,67.9,370.5z"/>
		<path class="st3" d="M67.9,370.5c-0.1-0.9-0.5-1.8-1-2.5c-1-1-2.3-1.7-3.7-1.8c-1.4-0.1-2.8-0.3-4.1-0.6c-4.3-1.2-6.9-5.6-5.7-9.9
			c0,0,0,0,0-0.1c0.4-1.3,1.1-2.5,1.4-3.9c1-3.5-1.7-4.9-4.2-6.6c-1.7-1.2-4.6-2.9-4.2-5.3c0.7-4.6,7.5-5.8,14-3.9s10,3.3,14.8,2
			c4.8-1.3,9.3-1.6,11.9,2.7s0,8.4,3.3,11.4c3.3,3,9,1,11.3,7.5v39.1c0-0.2-1.1-1-1.3-1.1l-3.6-3.2c-1.1-1-2.7-1.9-3.4-3.1
			c-1.1-1.7-1.6-3.8-2.7-5.5c-1.2-2.1-3-3.8-5.1-5c-4.2-2.1-9.2-1.8-13.4-3.8c-1.5-0.7-2.8-1.9-3.5-3.4
			C68.3,372.4,68.1,371.5,67.9,370.5z"/>
		<path class="st4" d="M101.8,389.9c-0.2,0-0.5-0.2-0.5-0.4c-4.1-23.5-31.7-45.3-48.1-49.3c-0.3-0.1-0.4-0.3-0.4-0.6c0,0,0,0,0,0
			c0.1-0.3,0.3-0.4,0.6-0.4c16.7,4.1,44.6,26.2,48.9,50.1C102.3,389.6,102.2,389.9,101.8,389.9C101.9,389.9,101.9,389.9,101.8,389.9
			L101.8,389.9z"/>
		<path class="st4" d="M62.8,357.2c-0.2,0-0.3-0.1-0.4-0.2c-0.2-0.2-0.1-0.5,0.1-0.7c3.9-3.1,11.9-4,15.1-3.8c0.3,0,0.5,0.3,0.5,0.5
			c0,0.3-0.3,0.5-0.5,0.5c-3.3-0.2-10.9,0.8-14.4,3.6C63,357.2,62.9,357.2,62.8,357.2z"/>
		<path class="st4" d="M81,356.5c-0.1,0-0.1,0-0.2,0c-0.3-0.1-0.4-0.4-0.3-0.6c0,0,0,0,0,0c2.1-5.1,1-13.6,0.9-13.7
			c0-0.3,0.2-0.5,0.4-0.6c0.3,0,0.5,0.2,0.6,0.4c0,0.4,1.2,8.9-1,14.2C81.4,356.4,81.2,356.5,81,356.5z"/>
		<path class="st2" d="M99.6,405.4c-1.2-3.5-7-10.9-17.4-16.7c-9.1-5-23-8.8-21.8-15.4c1.2-6.6,14.1-6.8,23-1.4
			c11.2,6.7,17.4,20.4,18.2,25.9L99.6,405.4z"/>
		<path class="st4" d="M100.7,401.7c-0.2,0-0.5-0.2-0.5-0.4c-2.3-12.3-19.7-29-33.6-28.6c-0.3,0-0.5-0.2-0.5-0.5c0,0,0,0,0,0
			c0-0.3,0.2-0.5,0.5-0.5c14.4-0.4,32.3,16.8,34.7,29.4C101.3,401.4,101.1,401.6,100.7,401.7C100.8,401.7,100.8,401.7,100.7,401.7
			L100.7,401.7z"/>
		<path class="st2" d="M407.9,350.3c2-6.6,8.5-12.7,14.1-16.4c5.6-3.7,9.8-5.5,12.3-7.5c3-2.5-0.9-8.4-10.1-4.9
			c-9.2,3.5-14.8,13.7-18.1,24L407.9,350.3z"/>
		<path class="st3" d="M407.9,350.3c2-6.6,8.5-12.7,14.1-16.4c5.6-3.7,9.8-5.5,12.3-7.5c3-2.5-0.9-8.4-10.1-4.9
			c-9.2,3.5-14.8,13.7-18.1,24L407.9,350.3z"/>
		<path class="st4" d="M407.6,345.9c-0.1,0-0.1,0-0.2,0c-0.3-0.1-0.4-0.4-0.3-0.7c0,0,0,0,0,0c3.5-9.1,12.6-20,22.6-22.3
			c0.3-0.1,0.6,0.2,0.6,0.5c0,0.3-0.1,0.6-0.4,0.6c-8.4,2-17.8,11.3-21.8,21.6C408,345.8,407.8,345.9,407.6,345.9z"/>
		<path class="st2" d="M405.8,376.5c2.4-2.7,7.7-1.7,10.6-5.2c2.3-2.8,0.6-6.9,2.9-9.6c0.7-0.7,1.5-1.2,2.4-1.6
			c2-0.7,3.9-1.6,5.7-2.6c1.8-1.2,3.2-3.1,3-5.2c-0.2-2.1-1.7-3.8-1.7-5.9c0.2-1.5,0.9-2.9,2-3.9c1.1-1,2.1-2.1,2.9-3.4
			c0.5-0.7,0.6-1.5,0.5-2.3c-0.3-1.2-1.3-2-2.5-2.2c-3.1-0.6-5.7,1.1-8.4,2.4c-2.3,1.1-4.4,0.9-6.9,0.9c-1-0.1-2,0.1-3,0.3
			c-1.9,0.6-3.2,2.5-4.1,4.4c-0.9,1.9-1.5,3.9-2.8,5.5c-0.9,1-1.8,2-2.6,3.1c-0.7,1.4-1.1,2.9-1.3,4.4c-0.8,3.7-1.1,7.4-0.8,11.2
			c0.1,1.8,0.5,3.6,1.1,5.3C403.2,372.5,405.6,376.8,405.8,376.5z"/>
		<path class="st4" d="M425.5,353.8h-0.1c-0.1,0-7.9-2-13.5-0.7c-0.3,0.1-0.6-0.1-0.7-0.4c-0.1-0.3,0.1-0.6,0.4-0.7
			c5.9-1.3,13.7,0.6,14,0.7c0.3,0.1,0.5,0.4,0.4,0.7C426,353.6,425.8,353.8,425.5,353.8L425.5,353.8z"/>
		<path class="st4" d="M416.3,348.2c-0.3,0-0.5-0.2-0.6-0.5c-0.3-2.1-0.9-4.2-1.8-6.2c-0.1-0.3,0.1-0.6,0.4-0.7c0.2,0,0.4,0,0.6,0.2
			c0.9,2.1,1.5,4.3,1.9,6.6C416.8,347.9,416.6,348.2,416.3,348.2L416.3,348.2z"/>
		<path class="st4" d="M403.5,373.1L403.5,373.1c-0.4,0-0.6-0.3-0.6-0.6c0,0,0,0,0,0c1.7-14.4,10.4-26,25.9-34.5
			c0.3-0.1,0.6,0,0.7,0.2c0,0,0,0,0,0c0.1,0.3,0.1,0.6-0.2,0.7c0,0,0,0,0,0c-15.2,8.3-23.7,19.5-25.3,33.6
			C404,372.9,403.8,373.1,403.5,373.1z"/>
	</g>
</g>
<g id="Clouds">
	<g>
		<path class="st5" d="M174.6,102.5l-6.5,3.7c0-0.3,0.1-0.6,0.1-0.8v-1.9c0-3.3-2.3-4.7-5.2-3c-1.2,0.8-2.3,1.8-3.1,3
			c-0.5-4.2-3.8-5.8-7.8-3.4c-4.6,3-7.5,8-7.8,13.5v2.8c0,1.1,0.2,2.2,0.7,3.3l-5.4,3.1c-1.7,1.1-2.8,3-2.9,5c0,1.8,1.3,2.6,2.9,1.7
			l35-20.2c1.7-1.1,2.8-3,2.9-5C177.5,102.3,176.2,101.6,174.6,102.5z"/>
		<path class="st5" d="M131.8,85.3l-3.6,1.4v-7.9c0-6.2-5-7.7-10.4-4.6l0,0c-5.4,3.1-9.8,10.7-9.8,16.9v1.1
			c-1.5-0.5-3.2-0.2-4.5,0.7l0,0c-4.1,2.7-6.7,7.2-7,12.2v0.5l-5,2.9c-2.7,1.8-4.4,4.7-4.6,8c0,3,2.1,4.2,4.6,2.7L131.8,96
			c2.7-1.8,4.4-4.7,4.6-8C136.5,85,134.4,83.8,131.8,85.3z"/>
	</g>
</g>
<g id="Thumbtacks">
	<g>
		<path class="st1" d="M224.4,405l-0.1,0.1c-0.1,0.1-0.2,0.2-0.3,0.3c-0.3,0.2-0.4,0-0.6-0.1l-1.9-1.1c-0.8-0.5-1.7-1-2.6-1.6
			c-1-0.6-2-1.2-3-1.8c-2-1.3-4.1-2.6-5.5-3.6c-1.5-1-2.5-1.7-2.5-1.7s1.1,0.5,2.7,1.3c1.6,0.8,3.8,1.9,5.9,3
			c1.1,0.6,2.1,1.1,3.1,1.7s1.9,1,2.7,1.5l1.9,1.1c0.2,0.1,0.4,0.2,0.4,0.5c0,0.1,0,0.3-0.1,0.4L224.4,405z"/>
		<path class="st6" d="M226.3,406.4c-1.4,2.5-3.8,3.9-6.3,2.5l-0.1-0.1h-0.1c-0.7-0.6-1.1-1.5-1.1-2.4c0.1-2.7,1.5-5.1,3.8-6.5
			c0.7-0.5,1.7-0.6,2.5-0.3l0.1,0.1l0.2,0.1C227.8,401.2,227.7,403.9,226.3,406.4z"/>
		<path class="st7" d="M224.2,402.4c1.4-0.8,2.5-0.1,2.5,1.4c-0.1,1.7-1,3.3-2.5,4.3c-1.4,0.8-2.5,0.1-2.5-1.4
			C221.8,404.9,222.7,403.3,224.2,402.4z"/>
		<path class="st7" d="M232.1,406.5c-2.2-1.1-4.3-2.6-6.1-4.3l-3.6,5.9c2.4,0.7,4.8,1.7,6.9,3.1L232.1,406.5z"/>
		<path class="st6" d="M234.6,407.5c0-1.6-1.4-3-3-2.9c-0.3,0-0.7,0.1-1,0.2h-0.1h-0.1c-0.2,0.1-0.3,0.1-0.5,0.2
			c-1.8,1.1-2.9,3.1-3,5.2c0,0.3,0,0.5,0.1,0.8c0.3,1.6,1.8,2.7,3.4,2.4c1.4-0.3,2.4-1.5,2.4-2.9c0-0.1,0-0.2,0-0.3
			C233.9,409.6,234.5,408.6,234.6,407.5z"/>
		<path class="st7" d="M231.6,406c1.6-1,3-0.2,3,1.7c-0.1,2.1-1.2,4-3,5.2c-1.7,1-3,0.2-3-1.7C228.7,409.1,229.8,407.2,231.6,406z"
			/>
		<path class="st1" d="M247.3,398.2l-0.1,0.1c-0.1,0.1-0.2,0.2-0.3,0.3c-0.3,0.2-0.4,0-0.6-0.1l-1.9-1.1c-0.8-0.5-1.7-1-2.6-1.6
			c-1-0.6-2-1.2-3-1.8c-2-1.3-4-2.6-5.5-3.6c-1.5-1-2.5-1.7-2.5-1.7s1.1,0.5,2.7,1.3c1.6,0.8,3.8,1.9,5.9,3c1.1,0.6,2.1,1.1,3.1,1.7
			c1,0.5,1.9,1,2.7,1.5c0.8,0.5,1.4,0.8,1.9,1.1c0.2,0.1,0.4,0.2,0.4,0.5c0,0.1,0,0.3,0,0.4L247.3,398.2z"/>
		<path class="st6" d="M249.2,399.6c-1.4,2.5-3.8,3.9-6.3,2.5l-0.1-0.1h-0.1c-0.7-0.6-1.1-1.5-1-2.4c0.1-2.7,1.6-5.1,3.8-6.5
			c0.7-0.5,1.7-0.6,2.5-0.3l0.1,0.1c0.1,0,0.2,0.1,0.2,0.2C250.6,394.4,250.6,397.1,249.2,399.6z"/>
		<path class="st7" d="M247.1,395.6c1.4-0.8,2.5-0.1,2.5,1.4c-0.1,1.7-1,3.3-2.5,4.3c-1.4,0.8-2.4,0.2-2.4-1.4
			C244.7,398.1,245.6,396.5,247.1,395.6z"/>
		<path class="st7" d="M255,399.8c-2.2-1.1-4.3-2.6-6.1-4.3l-3.6,5.9c2.4,0.7,4.8,1.7,6.9,3.1L255,399.8z"/>
		<path class="st6" d="M257.4,400.7c0-1.6-1.4-3-3-2.9c-0.3,0-0.7,0.1-1,0.2h-0.1l-0.1,0.1c-0.2,0.1-0.3,0.1-0.5,0.2
			c-1.8,1.2-2.9,3.1-3,5.2c0,0.2,0,0.5,0.1,0.7c0.3,1.6,1.8,2.7,3.4,2.4c1.4-0.2,2.5-1.5,2.5-2.9c0-0.1,0-0.2,0-0.3
			C256.7,402.8,257.4,401.8,257.4,400.7z"/>
		<path class="st7" d="M254.5,399.2c1.7-0.9,3-0.2,3,1.7c-0.1,2.1-1.2,4-3,5.2c-1.6,1-3,0.2-3-1.7
			C251.6,402.2,252.7,400.3,254.5,399.2z"/>
		<path class="st1" d="M183.4,398.8v-0.2c0-0.1-0.1-0.3-0.1-0.4c0-0.3,0.2-0.3,0.4-0.5l1.9-1.1c0.8-0.4,1.7-1,2.7-1.5
			c1-0.5,2-1.1,3.1-1.7c2.1-1.1,4.3-2.2,5.9-3c1.6-0.8,2.7-1.3,2.7-1.3s-1,0.7-2.5,1.7c-1.5,1-3.5,2.3-5.5,3.6c-1,0.7-2,1.3-3,1.8
			c-0.9,0.6-1.9,1.1-2.6,1.6l-1.9,1.1c-0.2,0.1-0.4,0.3-0.6,0.1c-0.1-0.1-0.2-0.1-0.3-0.3L183.4,398.8z"/>
		<path class="st6" d="M181.4,400.2c1.5,2.5,3.8,3.9,6.3,2.5l0.1-0.1c0,0,0,0,0.1,0c0.8-0.6,1.2-1.5,1.1-2.4
			c-0.1-2.7-1.6-5.1-3.8-6.5c-0.7-0.5-1.7-0.6-2.5-0.3l-0.1,0.1c-0.1,0-0.2,0.1-0.2,0.1C180,395,180,397.7,181.4,400.2z"/>
		<path class="st7" d="M183.6,396.2c-1.4-0.8-2.5-0.1-2.5,1.4c0.1,1.7,1,3.3,2.5,4.3c1.4,0.8,2.5,0.2,2.5-1.4
			C185.9,398.7,185,397.1,183.6,396.2z"/>
		<path class="st7" d="M175.6,400.4c2.2-1.1,4.3-2.6,6.1-4.3l3.6,5.9c-2.4,0.7-4.8,1.7-6.9,3.1L175.6,400.4z"/>
		<path class="st6" d="M173.2,401.3c0-1.6,1.3-2.9,2.9-3c0.4,0,0.7,0.1,1.1,0.2h0.1l0.1,0c0.2,0.1,0.3,0.1,0.5,0.2
			c1.8,1.1,2.9,3.1,3,5.2c0,0.3,0,0.5-0.1,0.8c-0.3,1.6-1.8,2.7-3.4,2.4c-1.4-0.2-2.5-1.5-2.5-2.9c0-0.1,0-0.2,0-0.3
			C173.9,403.5,173.2,402.4,173.2,401.3z"/>
		<path class="st7" d="M176.1,399.8c-1.6-1-3-0.2-3,1.7c0.1,2.1,1.2,4,3,5.2c1.7,1,3,0.2,3-1.7C179,402.9,177.9,400.9,176.1,399.8z"
			/>
	</g>
</g>
<g id="Cork_Board">
	<g>
		<polygon class="st2" points="117.1,391.1 362.7,249.3 362.7,57.4 117.1,199.1 		"/>
		<polygon class="st8" points="117.1,391.1 362.7,249.3 362.7,57.4 117.1,199.1 		"/>
		<polygon class="st9" points="105.8,192.6 117.1,199.1 362.7,57.4 374,37.7 		"/>
		<polygon class="st7" points="374,255.8 374,37.7 362.7,57.4 362.7,249.3 		"/>
		<polygon class="st7" points="105.8,192.6 117.1,199.1 117.1,391.1 105.8,410.7 		"/>
		<polygon class="st9" points="117.1,391.1 362.7,249.3 374,255.8 105.8,410.7 		"/>
		<polygon class="st7" points="374,37.7 366.4,33.4 98.2,188.2 105.8,192.6 		"/>
		<polygon class="st6" points="98.2,188.2 105.8,192.6 105.8,410.7 98.2,406.3 		"/>
		<polygon class="st6" points="362.7,57.4 358.9,59.5 358.9,247.1 117.1,386.7 117.1,391.1 362.7,249.3 		"/>
	</g>
</g>
<g id="Photos">
	<g>
		<g>
			<path class="st7" d="M191.5,230.3l-50.9,29.4c-0.6,0.4-1,1-1,1.7v82.7c0,0.7,0.4,0.9,1,0.6l50.9-29.4c0.6-0.4,1-1,1-1.7v-82.7
				C192.5,230.2,192.1,230,191.5,230.3z"/>
			<path class="st10" d="M196.9,228.7l-1.8-1c-0.6-0.3-1.4-0.3-2,0L142.2,257c-0.6,0.4-1,1-1,1.8v82.7c0,0.7,0.4,1.4,1,1.8l1.8,1
				c0.6,0.3,1.4,0.3,2,0l50.9-29.4c0.6-0.4,1-1,1-1.7v-82.7C197.8,229.7,197.5,229.1,196.9,228.7z"/>
			<path class="st1" d="M168.3,273.2l-26.8-15.5c-0.2,0.3-0.3,0.6-0.3,1v82.7c0,0.7,0.4,1.4,1,1.8l1.8,1c0.6,0.3,1.4,0.3,2,0
				l22.4-19.4C168.5,305.4,168.6,273.4,168.3,273.2z"/>
			<path class="st11" d="M196.9,229.8L146,259.2c-0.6,0.4-1,1-1,1.8v82.7c0,0.6,0.4,0.9,1,0.6l50.9-29.4c0.6-0.4,1-1,1-1.7v-82.7
				C197.9,229.8,197.4,229.5,196.9,229.8z"/>
			<path class="st10" d="M147.9,260.3l47.1-27.2c0.6-0.3,1-0.1,1,0.6V311c0,0.7-0.4,1.4-1,1.8l-47.1,27.2c-0.5,0.3-1,0.1-1-0.6V262
				C146.9,261.3,147.3,260.7,147.9,260.3z"/>
			<path class="st2" d="M146.9,262v13.8c1.5,0.6,3.5,0.3,5.7-0.9c5-2.9,9-9.8,9-15.5c0-2.6-0.9-4.6-2.3-5.6l-11.4,6.6
				C147.3,260.6,146.9,261.3,146.9,262z"/>
			<path class="st2" d="M187.4,258.9l-12.2,29.3l-8-6.5c-0.6-0.5-1.5-0.4-2,0.2c-0.1,0.1-0.1,0.2-0.2,0.3l-18.1,39.8v17.4
				c0,0.6,0.4,0.9,1,0.6l7.1-4.1l40-23.1c0.6-0.4,1-1,1-1.8v-43.5l-6.1-8.8c-0.4-0.6-1.3-0.8-1.9-0.4
				C187.7,258.4,187.6,258.6,187.4,258.9z"/>
			<path class="st6" d="M174.4,254.4c-1.4,2.5-3.8,3.9-6.3,2.5l-0.1-0.1l0,0c-0.7-0.6-1.1-1.5-1.1-2.4c0.1-2.7,1.5-5.1,3.8-6.5
				c0.7-0.5,1.7-0.6,2.5-0.3l0.1,0.1c0.1,0,0.2,0.1,0.2,0.1C175.9,249.2,175.8,251.9,174.4,254.4z"/>
			<path class="st7" d="M172.3,250.4c1.4-0.8,2.5-0.1,2.5,1.4c-0.1,1.7-1,3.3-2.5,4.3c-1.4,0.8-2.5,0.2-2.5-1.4
				C169.9,252.9,170.8,251.3,172.3,250.4z"/>
			<path class="st7" d="M180.2,254.6c-2.2-1.1-4.3-2.6-6.1-4.3l-3.6,5.9c2.4,0.7,4.8,1.7,6.9,3.1L180.2,254.6z"/>
			<path class="st6" d="M182.6,255.5c0-1.6-1.3-2.9-2.9-3c-0.4,0-0.7,0.1-1.1,0.2h-0.1l-0.1,0.1c-0.2,0.1-0.3,0.1-0.5,0.2
				c-1.8,1.1-2.9,3.1-3,5.2c0,0.3,0,0.5,0.1,0.8c0.3,1.6,1.8,2.7,3.4,2.4c1.4-0.3,2.4-1.5,2.4-2.9c0-0.1,0-0.2,0-0.3
				C182,257.7,182.6,256.6,182.6,255.5z"/>
			<path class="st7" d="M177.6,256.2c1.2-2,3.1-3.1,4.2-2.4c1.2,0.7,1.2,2.9,0,4.9c-1.2,2-3.1,3.1-4.2,2.4
				C176.4,260.4,176.4,258.2,177.6,256.2z"/>
		</g>
		<g>
			<path class="st7" d="M261.5,143.3l-50.9,29.4c-0.6,0.4-1,1-1,1.7v82.7c0,0.6,0.4,0.9,1,0.6l50.9-29.4c0.6-0.4,1-1,1-1.7v-82.7
				C262.5,143.2,262.1,143,261.5,143.3z"/>
			<path class="st10" d="M266.9,141.7l-1.8-1c-0.6-0.3-1.4-0.3-2,0L212.2,170c-0.6,0.4-1,1-1,1.8v82.7c0,0.7,0.4,1.4,1,1.8l1.8,1
				c0.6,0.3,1.4,0.3,2,0l50.9-29.4c0.6-0.4,1-1,1-1.7v-82.7C267.8,142.7,267.5,142.1,266.9,141.7z"/>
			<path class="st1" d="M238.3,186.2l-26.8-15.5c-0.2,0.3-0.3,0.6-0.3,1v82.7c0,0.7,0.4,1.4,1,1.7l1.8,1c0.6,0.3,1.4,0.3,2,0
				l22.4-19.4C238.5,218.4,238.6,186.4,238.3,186.2z"/>
			<path class="st11" d="M266.9,142.8L216,172.2c-0.6,0.4-1,1-1,1.8v82.7c0,0.6,0.4,0.9,1,0.6l50.9-29.4c0.6-0.4,1-1,1-1.7v-82.7
				C267.9,142.8,267.4,142.5,266.9,142.8z"/>
			<path class="st10" d="M217.9,173.3l47.1-27.2c0.6-0.3,1-0.1,1,0.6V224c0,0.7-0.4,1.4-1,1.8l-47.1,27.2c-0.6,0.3-1,0.1-1-0.6V175
				C217,174.3,217.3,173.7,217.9,173.3z"/>
			<path class="st2" d="M216.9,175v13.8c1.5,0.6,3.5,0.3,5.7-0.9c5-2.9,9-9.8,9-15.5c0-2.6-0.9-4.6-2.3-5.6l-11.4,6.6
				C217.3,173.6,216.9,174.3,216.9,175z"/>
			<path class="st2" d="M257.5,171.9l-12.2,29.3l-8-6.5c-0.6-0.5-1.5-0.4-2,0.2c-0.1,0.1-0.1,0.2-0.2,0.3l-18.1,39.8v17.4
				c0,0.6,0.4,0.9,1,0.6l7.1-4.1l40-23.1c0.6-0.4,1-1,1-1.8v-43.6l-6.1-8.8c-0.4-0.6-1.3-0.8-1.9-0.4
				C257.7,171.4,257.6,171.6,257.5,171.9z"/>
			<path class="st6" d="M244.4,167.4c-1.4,2.5-3.8,3.9-6.3,2.5l-0.1-0.1l0,0c-0.7-0.6-1.1-1.5-1.1-2.4c0.1-2.7,1.5-5.1,3.8-6.5
				c0.7-0.5,1.7-0.6,2.5-0.3l0.1,0.1c0.1,0,0.2,0.1,0.2,0.1C245.9,162.2,245.8,164.9,244.4,167.4z"/>
			<path class="st7" d="M242.3,163.4c1.4-0.8,2.5-0.1,2.5,1.4c-0.1,1.7-1,3.3-2.5,4.3c-1.4,0.8-2.5,0.1-2.5-1.4
				C239.9,165.9,240.8,164.3,242.3,163.4z"/>
			<path class="st7" d="M250.2,167.6c-2.2-1.1-4.3-2.6-6.1-4.3l-3.6,5.9c2.4,0.7,4.8,1.7,6.9,3.1L250.2,167.6z"/>
			<path class="st6" d="M252.6,168.5c0-1.6-1.3-2.9-2.9-3c-0.4,0-0.7,0.1-1.1,0.2h-0.1l-0.1,0.1c-0.2,0.1-0.3,0.1-0.5,0.2
				c-1.8,1.1-2.9,3.1-3,5.2c0,0.3,0,0.5,0.1,0.8c0.3,1.6,1.8,2.7,3.4,2.4c1.4-0.3,2.4-1.5,2.4-2.9c0-0.1,0-0.2,0-0.3
				C252,170.6,252.6,169.6,252.6,168.5z"/>
			<path class="st7" d="M247.6,169.2c1.2-2,3.1-3.1,4.2-2.4c1.2,0.7,1.2,2.9,0,4.9c-1.2,2-3.1,3.1-4.2,2.4
				C246.4,173.4,246.4,171.2,247.6,169.2z"/>
		</g>
		<g>
			<path class="st7" d="M336,152.5l-50.9,29.4c-0.6,0.4-1,1-1,1.7v82.7c0,0.7,0.5,0.9,1,0.6l50.9-29.4c0.6-0.4,1-1,1-1.7v-82.7
				C337,152.5,336.6,152.2,336,152.5z"/>
			<path class="st10" d="M341.4,150.9l-1.8-1c-0.6-0.3-1.4-0.3-2,0l-50.9,29.3c-0.6,0.4-1,1-1,1.8v82.7c0,0.7,0.4,1.4,1,1.8l1.8,1
				c0.6,0.3,1.4,0.3,2,0l50.9-29.4c0.6-0.4,1-1,1-1.7v-82.7C342.3,151.9,342,151.3,341.4,150.9z"/>
			<path class="st1" d="M312.8,195.5L286,180c-0.2,0.3-0.3,0.6-0.3,1v82.7c0,0.7,0.4,1.4,1,1.8l1.8,1c0.6,0.3,1.4,0.3,2,0l22.4-19.4
				C313,227.6,313.1,195.6,312.8,195.5z"/>
			<path class="st11" d="M341.4,152.1l-50.9,29.4c-0.6,0.4-1,1-1,1.8v82.7c0,0.6,0.4,0.9,1,0.6l50.9-29.4c0.6-0.4,1-1,1-1.7v-82.7
				C342.4,152,341.9,151.7,341.4,152.1z"/>
			<path class="st10" d="M292.4,182.5l47.1-27.2c0.6-0.3,1-0.1,1,0.6v77.3c0,0.7-0.4,1.4-1,1.8l-47.1,27.2c-0.6,0.3-1,0.1-1-0.6
				v-77.4C291.4,183.5,291.8,182.9,292.4,182.5z"/>
			<path class="st2" d="M291.4,184.2V198c1.5,0.6,3.5,0.3,5.7-0.9c5-2.9,9-9.8,9-15.5c0-2.7-0.9-4.6-2.3-5.6l-11.4,6.6
				C291.8,182.9,291.4,183.5,291.4,184.2z"/>
			<path class="st2" d="M332,181.1l-12.2,29.3l-8-6.5c-0.6-0.5-1.5-0.4-2,0.2c-0.1,0.1-0.1,0.2-0.2,0.3l-18.1,39.8v17.4
				c0,0.6,0.5,0.9,1,0.6l7.1-4.1l40-23.1c0.6-0.4,1-1,1-1.8v-43.6l-6.1-8.8c-0.4-0.6-1.3-0.8-1.9-0.4
				C332.2,180.6,332.1,180.8,332,181.1z"/>
		</g>
	</g>
</g>
<g id="Character">
	<g>
		<path class="st12" d="M420.4,229.4c-1.2-5.2-3.6-15.6-6.2-27c-1.3-5.8-2.8-11.5-7.1-12.4c0,0-11.4,4.5-11.4,12.9
			s9.3,11.6,9.3,11.6s6,16.7,5.9,19"/>
		<path class="st6" d="M319.2,176.8c-1.4,2.5-3.8,3.9-6.3,2.5l-0.1-0.1h-0.1c-0.7-0.6-1.1-1.5-1-2.4c0.1-2.7,1.5-5.1,3.8-6.6
			c0.7-0.5,1.7-0.6,2.5-0.3l0.1,0.1l0.2,0.1C320.6,171.6,320.6,174.3,319.2,176.8z"/>
		<path class="st7" d="M317,172.8c1.4-0.8,2.5-0.1,2.5,1.4c-0.1,1.7-1,3.3-2.5,4.3c-1.3,0.8-2.4,0.1-2.4-1.4
			C314.7,175.3,315.6,173.7,317,172.8z"/>
		<path class="st7" d="M325,177c-2.2-1.1-4.3-2.6-6.1-4.3l-3.6,5.9c2.4,0.7,4.8,1.7,6.9,3.1L325,177z"/>
		<path class="st12" d="M382,187.6c-3.9,0-7.8-0.3-10.8,1.8c-7.6,5.4-17.3,12.6-22,16.6c0,0-13.8-27.9-18.9-31.4
			c-3.3-2.3-5.9-3.3-8.1-3.4c-2.1-0.2-4.2,0.6-5.6,2.3c-2.1,2.5-1.4,6,3.7,5.2c1.3-0.2,2.3-3,2.3-3c1.2,0.1,0.4,4.3,1.6,4.6
			c2.1,2.9,4.5,1.7,5.7,4.8c1.6,4.3,11.8,31.7,13.4,33.8c1.8,2.3,4.1,3.1,8,1.1c3.9-2,23.7-14.5,23.7-14.5L382,187.6z"/>
		<path class="st6" d="M327.4,177.9c0-1.6-1.3-3-2.9-3c-0.4,0-0.7,0.1-1.1,0.2h-0.1l-0.1,0c-0.2,0.1-0.3,0.1-0.5,0.2
			c-1.8,1.1-2.9,3.1-3,5.2c0,0.3,0,0.5,0.1,0.8c0.3,1.6,1.8,2.7,3.4,2.4c1.4-0.2,2.5-1.5,2.5-2.9c0-0.1,0-0.2,0-0.3
			C326.7,180,327.4,179,327.4,177.9z"/>
		<path class="st7" d="M324.5,176.4c1.6-1,3-0.2,3,1.7c-0.1,2.1-1.2,4-3,5.2c-1.7,0.9-3,0.2-3-1.7
			C321.6,179.5,322.7,177.6,324.5,176.4z"/>
		<rect x="396.1" y="364.3" class="st12" width="8.1" height="11.8"/>
		<path class="st6" d="M382.5,372.6c-0.5,1.5-2.9,2.6-4.7,3.9c-1.4,1-1.8,2.8-1.1,4.3c0.7,1.1,3.8,1.7,7.1,1.2
			c3.7-0.6,7-2.2,7.7-5.5c0.4-2.8,1.2-5.5,2.2-8.1c0.6-1.7,1.8-3.3,1.5-5c-0.4-1.7-1.4-3.1-2.8-4c0,0-6.1,13.9-7.9,14.3
			C382.7,374,382.5,372.6,382.5,372.6z"/>
		<path class="st12" d="M382.2,354c0,0,1.3,4.6,1.7,6.1s-0.2,9.2-1,11.3c-0.3,1.2-1,2.3-2.1,3.1c0,0-2.5,2.2,0.4,2.6
			c2.4,0.6,5-0.3,6.5-2.2c1.9-2.2,2.1-8.4,3.4-11c0.8-1.7,1.4-2.7,1.6-3.2c0.2-0.5-0.6-0.8-1.4-3.2c-0.6-2.3-1.1-4.6-1.4-7
			L382.2,354z"/>
		<path class="st7" d="M409.9,243.8c4.2,11.8,0.5,32.3-0.6,44c-1.1,11.3-2.4,24.5-2.4,24.5s3.5,11.9,3.3,21.1
			c-0.2,9.8-5.9,33.3-5.9,33.3c-2.5,1.6-5.8,1.6-8.3,0c0,0-1.5-19.8-2.8-31c-1.4-11.7-1.9-20.3-3.1-27.1c-1.5-8.5-2.9-42.1-2.9-42.1
			l-6.3,35.4c2,4.2,3.6,8.6,4.8,13.1c1.8,6.9,5.3,39.4,5.3,39.4s-2.5,3.7-8.2,3.1c0,0-16.4-47-18-51.4c-2.2-6.1,1.5-46.5,2.8-60
			L409.9,243.8z"/>
		<path class="st2" d="M395.5,188.1c0,0,10.3,1.3,11.7,1.9c-10.8,7.6-2.1,24.4-2.1,24.4l-5.2,14.3c4.5,5,7.1,7.8,10,15
			c-3,3.5-21.7,15.5-42.2,2.3c0.4-7,1.2-13.9,2.4-20.8c-3-14.2-3.3-18.6-2.4-21.9c2.4-9.3,7.9-15.3,14.3-15.6L395.5,188.1z"/>
		<path class="st3" d="M395.5,188.1c0,0,10.3,1.3,11.7,1.9c-10.8,7.6-2.1,24.4-2.1,24.4l-5.2,14.3c4.5,5,7.1,7.8,10,15
			c-3,3.5-21.7,15.5-42.2,2.3c0.4-7,1.2-13.9,2.4-20.8c-3-14.2-3.3-18.6-2.4-21.9c2.4-9.3,7.9-15.3,14.3-15.6L395.5,188.1z"/>
		<path class="st6" d="M396.1,372.1v-1.2c-1,3.8-3,7.4-5.8,10.2c-2.6,2.3-6.1,5-6.9,7.6c-0.9,2.6,4.1,3.8,7.4,3.5
			c3.2-0.4,6.2-1.9,8.3-4.4c2.1-2.4,2.1-4.1,3-5.4c0.9-1.3,3.3-2.8,3.8-4.4c0.3-0.9-0.1-2.7-0.5-4.3c-0.4-1.6-0.8-3-1.3-2.9v0.9
			c-1.2,0.9-2.6,1.4-4.1,1.4C399,373.2,396.1,373,396.1,372.1z"/>
		<path class="st12" d="M404.3,371.8c-0.3-0.8-2.4,1.1-4.3,1.2c-1.2,0-3-0.1-3-1l-0.9-1.1c-1,3.8-3,7.4-5.8,10.2l-1.9,1.7
			c-1.4,1.5-1,2.8,2.2,3.1s6-1.7,8.4-4.6C401.5,378.3,404.3,371.8,404.3,371.8z"/>
		<path class="st6" d="M388.5,181.1h-1.9c-10.2,0-18.5-8.3-18.5-18.5v-1.9c0-8.7,7-15.7,15.7-15.7l0,0h7.6c8.7,0,15.7,7,15.7,15.7
			l0,0v1.8C407.1,172.8,398.7,181.1,388.5,181.1L388.5,181.1z"/>
		<path class="st12" d="M374.5,152.9c-2.1,1.2-4.6,6.4-4.4,17.3c0.2,9.2,3.2,11.5,4.7,12.1c1.5,0.7,4.4,0.3,7.2-0.2v5.5
			c0,0-3.9,4.5-3.6,7c0.3,2.5,5.6,3.1,9.2,0.7c3.6-2.5,6.7-7.3,6.7-7.3l-0.1-12.7c0,0,1.7,1.6,4.5-0.8c2.3-2,3.1-5.4,1.3-7.3
			c-1.6-1.5-4.1-1.5-5.7,0.1c-0.3,0.3-0.6,0.7-0.8,1.1c0,0-4.5,0.2-10.5-3.1C378.4,162.8,375.2,158.2,374.5,152.9z"/>
		<path class="st6" d="M380.4,167.9c0,0.6,0.5,1.2,1.2,1.2c0.6,0,1.2-0.5,1.2-1.2c0-0.6-0.5-1.1-1.1-1.2
			C381,166.7,380.4,167.2,380.4,167.9C380.4,167.9,380.4,167.9,380.4,167.9z"/>
		<path class="st13" d="M380.1,175.7l-2.7,0.9c0.2,0.7,0.9,1.2,1.7,1c0,0,0,0,0.1,0C379.9,177.3,380.3,176.4,380.1,175.7z"/>
		<path class="st6" d="M370.9,164.3l2.3-1.6c-0.4-0.6-1.2-0.8-1.9-0.4c0,0,0,0-0.1,0C370.6,162.7,370.5,163.6,370.9,164.3z"/>
		<path class="st6" d="M371.4,167c0,0.6,0.5,1.2,1.2,1.2c0.6,0,1.2-0.5,1.2-1.2c0-0.6-0.5-1.1-1.1-1.2
			C372,165.8,371.5,166.3,371.4,167z"/>
		<polygon class="st13" points="376.9,166.4 376.7,173.3 373,172.2 		"/>
		<path class="st13" d="M382,182.1c3-0.4,9.1-2.1,10-4.5c-0.4,1.2-1.1,2.3-2.1,3.1c-1.8,1.6-7.9,3.4-7.9,3.4V182.1z"/>
		<polygon class="st2" points="403,220.3 394.9,231.3 399.9,228.8 		"/>
		<polygon class="st14" points="403,220.3 394.9,231.3 399.9,228.8 		"/>
		<path class="st12" d="M329,183.5c-1.4-0.7-3-1.3-4.5-1.8c-0.9-0.4-1.9-0.7-2.9-0.9c-0.8-0.1-0.8-2.4,1.9-2.2
			c2.7,0.3,3.7,0.4,4-0.5L329,183.5z"/>
		<path class="st12" d="M411,233.4c-0.1,1.6-1.7,18-3.7,23.8c-0.3,0.8-0.9,1.4-1.6,1.7c-3.4,1.5-4.5,3.1-6.7,5.1
			c-1.5,1.4-2.7,1.6-2.5,2.1c0.5,1.1,1.7,1.6,2.9,1.2c1.2-0.4,2.4-0.9,3.5-1.6c-1,2.1-2.3,4-3.8,5.6c-3.6,3.8-3.9,6.3,2.8,6.8
			c4.2,0.3,7.7-2,11.5-11c1.2-3.3,2.1-6.7,2.9-10.1c1.4-5.6,3.4-15.6,4.5-20.9c0.4-2.3,0.4-4.6-0.1-6.9"/>
		<path class="st6" d="M404.8,152.6L404.8,152.6c6.8,0,12.3,5.5,12.3,12.3l0,0V188l0,0l0,0c-6.8,0-12.3-5.5-12.3-12.3l0,0V152.6
			L404.8,152.6z"/>
		<path class="st6" d="M387.3,266.5c0,0-4.6-3.2-9-6.9c0,0,4.4,5.9,7,8l-2.8,25.6L387.3,266.5z"/>
	</g>
</g>
</svg>
